<svg width="44" height="45" viewBox="0 0 44 45" fill="none" xmlns="http://www.w3.org/2000/svg">
<path fill-rule="evenodd" clip-rule="evenodd" d="M40.3183 29.3878H39.402C41.9383 29.3878 44 31.4377 44 33.9796V34.898C44 35.9147 43.1819 36.7347 42.1674 36.7347H1.83265C0.818148 36.7347 0 35.9147 0 34.898V33.9796C0 31.4377 2.06173 29.3878 4.59799 29.3878H3.68167C4.69617 29.3878 5.51432 28.5678 5.51432 27.551V16.5306C5.49795 7.39614 12.8776 0 21.9918 0C31.106 0 38.4857 7.39614 38.4857 16.5306V27.551C38.4857 28.5678 39.3038 29.3878 40.3183 29.3878ZM15.5775 38.5714H28.4061C28.4061 42.1137 25.5262 45 21.9918 45C18.4574 45 15.5775 42.1301 15.5775 38.5714Z" fill="#DADADA"/>
</svg>
